<?xml version="1.0" standalone="no"?>
<!DOCTYPE svg PUBLIC "-//W3C//DTD SVG 20010904//EN"
 "http://www.w3.org/TR/2001/REC-SVG-20010904/DTD/svg10.dtd">
<svg version="1.0" xmlns="http://www.w3.org/2000/svg"
 width="1000.000000pt" height="1000.000000pt" viewBox="0 0 1000.000000 1000.000000"
 preserveAspectRatio="xMidYMid meet">
<metadata>
Created by potrace 1.14, written by Peter Selinger 2001-2017
</metadata>
<g transform="translate(0.000000,1000.000000) scale(0.100000,-0.100000)"
fill="#000000" stroke="none">
<path d="M4620 9635 c0 -30 -28 -70 -197 -291 -109 -140 -231 -299 -271 -352
-41 -53 -84 -108 -95 -122 -12 -14 -51 -63 -86 -110 -97 -128 -325 -424 -331
-430 -3 -3 -18 -23 -35 -45 -16 -22 -33 -44 -37 -50 -18 -22 -142 -183 -513
-665 -509 -661 -908 -1179 -971 -1260 -28 -36 -81 -105 -118 -154 -37 -48 -72
-93 -77 -100 -8 -9 -112 -145 -190 -246 -11 -14 -70 -91 -132 -171 -61 -80
-123 -161 -137 -179 -14 -18 -45 -59 -70 -91 -25 -31 -92 -118 -150 -194 -58
-75 -141 -183 -185 -240 -44 -56 -111 -144 -150 -195 -38 -50 -90 -118 -115
-149 -145 -185 -220 -285 -220 -292 0 -3 37 -35 83 -70 45 -35 84 -66 87 -70
3 -3 16 -12 28 -18 13 -7 21 -15 19 -18 -6 -5 261 -213 274 -213 3 0 53 62
110 138 57 75 107 139 110 142 4 4 99 127 273 354 139 181 201 262 206 266 3
3 21 26 40 53 19 26 43 57 52 69 10 11 80 102 155 201 76 99 152 197 168 217
17 21 40 51 51 67 12 15 55 71 95 123 41 52 99 128 129 168 l55 72 1072 0
1073 0 0 -2455 0 -2455 110 0 110 0 0 -90 0 -90 2135 0 2135 0 0 175 0 175
-110 0 -110 0 0 90 0 90 -1850 0 -1850 0 0 4135 0 4135 -110 0 -110 0 0 90 0
90 -175 0 -175 0 0 -35z m-3 -3322 c-2 -2 -392 -2 -866 -1 l-863 3 112 145
c61 80 116 152 123 160 7 8 43 56 81 105 38 50 79 102 90 116 12 14 32 40 46
59 54 72 443 576 458 595 10 11 28 36 42 55 14 19 32 44 41 55 16 19 158 203
364 470 50 65 97 126 105 136 8 10 71 92 140 182 l125 164 3 -1120 c1 -616 1
-1122 -1 -1124z"/>
</g>
</svg>
